Coordinates
version=1
nRows=7
nColumns=40
inDegrees=yes

Units are S.I. units (second, meters, Newtons, ...)
Angles are in degrees.

endheader
time	pelvis_tilt	pelvis_list	pelvis_rotation	pelvis_tx	pelvis_ty	pelvis_tz	hip_flexion_r	hip_adduction_r	hip_rotation_r	knee_angle_r	knee_angle_r_beta	ankle_angle_r	subtalar_angle_r	mtp_angle_r	hip_flexion_l	hip_adduction_l	hip_rotation_l	knee_angle_l	knee_angle_l_beta	ankle_angle_l	subtalar_angle_l	mtp_angle_l	lumbar_extension	lumbar_bending	lumbar_rotation	arm_flex_r	arm_add_r	arm_rot_r	elbow_flex_r	pro_sup_r	wrist_flex_r	wrist_dev_r	arm_flex_l	arm_add_l	arm_rot_l	elbow_flex_l	pro_sup_l	wrist_flex_l	wrist_dev_l
      0.00000000	     -4.18364828	     -3.92623289	      2.99516792	     -1.43596536	      0.89723704	     -1.00048291	     24.69310954	      2.04059663	    -14.77452581	    -23.40387710	     -0.40847471	     -0.74950140	     -5.65686202	      1.20172961	      1.40318681	      2.83913519	     13.21209615	    -10.47824358	     -0.18287985	     10.41688787	     -2.57698695	     -1.78728962	     -7.68562193	      4.49936825	     -2.94572735	      6.19840832	    -11.29939624	     16.75347110	     18.00362731	     89.95437384	      0.00000000	      0.00000000	     15.76497520	     15.62718035	    -13.54412868	     23.19730701	     89.95437384	      0.00000000	      0.00000000
      0.01000000	     -4.43359887	     -3.81417013	      2.60421828	     -1.43353741	      0.89653331	     -1.00123047	     25.04179115	      1.99946750	    -15.18879344	    -22.64084550	     -0.39515730	     -0.93566740	     -5.49960177	      1.27836222	      1.41156828	      2.62819522	     13.44451224	    -10.42247449	     -0.18190650	     10.58628093	     -2.57780929	     -1.79981891	     -7.48045322	      4.46625173	     -3.06985936	      6.13237412	    -11.13323753	     16.77347921	     17.88447243	     89.95437384	      0.00000000	      0.00000000	     15.49878981	     15.22911733	    -13.59499561	     22.99845297	     89.95437384	      0.00000000	      0.00000000
      0.02000000	     -4.80901356	     -4.00072251	      2.31047330	     -1.43134281	      0.89570492	     -1.00182307	     25.29441322	      2.32739355	    -15.42297140	    -21.33689322	     -0.37239904	     -1.87666660	     -4.82704572	      1.45720087	      1.37365958	      2.68916465	     13.58148623	     -9.93975297	     -0.17348142	     10.61365313	     -2.58048353	     -1.79939029	     -7.06592500	      4.72940221	     -3.17635646	      6.05372253	    -10.98131984	     16.72660833	     17.70987851	     89.95437384	      0.00000000	      0.00000000	     15.27586730	     14.78394904	    -13.68829512	     22.70099013	     89.95437384	      0.00000000	      0.00000000
      0.03000000	     -4.69961998	     -3.91090420	      2.05536902	     -1.42928239	      0.89567058	     -1.00272084	     25.10580717	      2.30942181	    -15.81556757	    -20.35678094	     -0.35529285	     -2.49002176	     -4.41325839	      1.58812562	      1.13526288	      2.50270153	     13.46101093	    -10.10099906	     -0.17629569	     10.87449778	     -2.21148902	     -1.79721934	     -7.26701690	      4.70316040	     -3.05422460	      5.92117043	    -10.90621613	     16.60552580	     17.71793174	     89.95437384	      0.00000000	      0.00000000	     15.40684095	     14.23246568	    -14.02322647	     22.10247337	     89.95437384	      0.00000000	      0.00000000
      0.04000000	     -4.84468995	     -3.87961681	      1.64420427	     -1.42610833	      0.89508971	     -1.00344812	     25.12774558	      2.37493467	    -16.19637069	    -19.50100337	     -0.34035672	     -3.02164936	     -3.85010051	      1.62929518	      0.84420780	      2.32091602	     13.43202647	     -9.79049454	     -0.17087637	     11.08810945	     -1.70138579	     -1.73564344	     -7.11438334	      4.80365763	     -3.13143094	      5.80932557	    -10.80448156	     16.49643991	     17.70833185	     89.95437384	      0.00000000	      0.00000000	     14.94989294	     13.79125603	    -13.93355241	     22.09058201	     89.95437384	      0.00000000	      0.00000000
      0.05000000	     -4.88665126	     -3.81266188	      1.41259644	     -1.42374474	      0.89475373	     -1.00431287	     25.10496539	      2.34804189	    -16.56001386	    -18.79017828	     -0.32795048	     -3.61916278	     -3.43493592	      1.66687606	      0.53650411	      2.09411374	     13.35378244	     -9.51636412	     -0.16609189	     11.19835800	     -1.28874645	     -1.69588766	     -7.10137260	      4.81405394	     -3.02676144	      5.67487647	    -10.74075770	     16.39255914	     17.64875070	     89.95437384	      0.00000000	      0.00000000	     14.95308068	     13.21979308	    -14.23922616	     21.69703702	     89.95437384	      0.00000000	      0.00000000
      0.06000000	     -5.02886440	     -3.67957414	      1.15135351	     -1.42083205	      0.89411822	     -1.00524548	     25.22612779	      2.22191875	    -16.93230630	    -18.40963386	     -0.32130872	     -3.71571322	     -3.28469558	      1.66198244	      0.52961158	      1.87432918	     13.56863005	     -9.68765487	     -0.16908147	     11.36682727	     -1.12778525	     -1.69295118	     -6.94742533	      4.78096233	     -3.01953251	      5.48265587	    -10.70226281	     16.37116745	     17.66340313	     89.95437384	      0.00000000	      0.00000000	     14.63031190	     12.75183647	    -14.38321837	     21.68687111	     89.95437384	      0.00000000	      0.00000000
